<mxfile host="app.diagrams.net" agent="Mozilla/5.0 (Windows NT 10.0; Win64; x64) AppleWebKit/537.36 (KHTML, like Gecko) Chrome/131.0.0.0 Safari/537.36" version="26.0.4">
  <diagram name="Page-1" id="mfiXKclypvWDG6BvOQ2L">
    <mxGraphModel dx="1434" dy="866" grid="1" gridSize="10" guides="1" tooltips="1" connect="1" arrows="1" fold="1" page="1" pageScale="1" pageWidth="850" pageHeight="1100" math="0" shadow="0">
      <root>
        <mxCell id="0" />
        <mxCell id="1" parent="0" />
        <mxCell id="4HzKC9ExeSz_yOe2cDUs-63" value="" style="group" vertex="1" connectable="0" parent="1">
          <mxGeometry x="80" y="200" width="200" height="140" as="geometry" />
        </mxCell>
        <mxCell id="4HzKC9ExeSz_yOe2cDUs-1" value="" style="ellipse;whiteSpace=wrap;html=1;aspect=fixed;rotation=90;" vertex="1" parent="4HzKC9ExeSz_yOe2cDUs-63">
          <mxGeometry x="133.33333333333334" width="20" height="20" as="geometry" />
        </mxCell>
        <mxCell id="4HzKC9ExeSz_yOe2cDUs-2" value="" style="ellipse;whiteSpace=wrap;html=1;aspect=fixed;rotation=90;" vertex="1" parent="4HzKC9ExeSz_yOe2cDUs-63">
          <mxGeometry x="88.8888888888889" width="20" height="20" as="geometry" />
        </mxCell>
        <mxCell id="4HzKC9ExeSz_yOe2cDUs-3" value="" style="ellipse;whiteSpace=wrap;html=1;aspect=fixed;rotation=90;" vertex="1" parent="4HzKC9ExeSz_yOe2cDUs-63">
          <mxGeometry x="44.44444444444445" width="20" height="20" as="geometry" />
        </mxCell>
        <mxCell id="4HzKC9ExeSz_yOe2cDUs-4" value="" style="ellipse;whiteSpace=wrap;html=1;aspect=fixed;rotation=90;" vertex="1" parent="4HzKC9ExeSz_yOe2cDUs-63">
          <mxGeometry x="177.7777777777778" y="40" width="20" height="20" as="geometry" />
        </mxCell>
        <mxCell id="4HzKC9ExeSz_yOe2cDUs-5" value="" style="ellipse;whiteSpace=wrap;html=1;aspect=fixed;rotation=90;" vertex="1" parent="4HzKC9ExeSz_yOe2cDUs-63">
          <mxGeometry x="133.33333333333334" y="40" width="20" height="20" as="geometry" />
        </mxCell>
        <mxCell id="4HzKC9ExeSz_yOe2cDUs-7" value="" style="ellipse;whiteSpace=wrap;html=1;aspect=fixed;rotation=90;" vertex="1" parent="4HzKC9ExeSz_yOe2cDUs-63">
          <mxGeometry x="44.44444444444445" y="40" width="20" height="20" as="geometry" />
        </mxCell>
        <mxCell id="4HzKC9ExeSz_yOe2cDUs-8" value="" style="ellipse;whiteSpace=wrap;html=1;aspect=fixed;rotation=90;" vertex="1" parent="4HzKC9ExeSz_yOe2cDUs-63">
          <mxGeometry y="40" width="20" height="20" as="geometry" />
        </mxCell>
        <mxCell id="4HzKC9ExeSz_yOe2cDUs-9" value="" style="ellipse;whiteSpace=wrap;html=1;aspect=fixed;rotation=90;" vertex="1" parent="4HzKC9ExeSz_yOe2cDUs-63">
          <mxGeometry x="177.7777777777778" y="80" width="20" height="20" as="geometry" />
        </mxCell>
        <mxCell id="4HzKC9ExeSz_yOe2cDUs-10" value="" style="ellipse;whiteSpace=wrap;html=1;aspect=fixed;rotation=90;" vertex="1" parent="4HzKC9ExeSz_yOe2cDUs-63">
          <mxGeometry x="133.33333333333334" y="80" width="20" height="20" as="geometry" />
        </mxCell>
        <mxCell id="4HzKC9ExeSz_yOe2cDUs-12" value="" style="ellipse;whiteSpace=wrap;html=1;aspect=fixed;rotation=90;" vertex="1" parent="4HzKC9ExeSz_yOe2cDUs-63">
          <mxGeometry x="44.44444444444445" y="80" width="20" height="20" as="geometry" />
        </mxCell>
        <mxCell id="4HzKC9ExeSz_yOe2cDUs-13" value="" style="ellipse;whiteSpace=wrap;html=1;aspect=fixed;rotation=90;" vertex="1" parent="4HzKC9ExeSz_yOe2cDUs-63">
          <mxGeometry y="80" width="20" height="20" as="geometry" />
        </mxCell>
        <mxCell id="4HzKC9ExeSz_yOe2cDUs-14" value="" style="ellipse;whiteSpace=wrap;html=1;aspect=fixed;rotation=90;" vertex="1" parent="4HzKC9ExeSz_yOe2cDUs-63">
          <mxGeometry x="88.8888888888889" y="120" width="20" height="20" as="geometry" />
        </mxCell>
        <mxCell id="4HzKC9ExeSz_yOe2cDUs-15" value="" style="endArrow=none;html=1;rounded=0;exitX=1;exitY=0.5;exitDx=0;exitDy=0;entryX=0;entryY=0.5;entryDx=0;entryDy=0;" edge="1" parent="4HzKC9ExeSz_yOe2cDUs-63" source="4HzKC9ExeSz_yOe2cDUs-1" target="4HzKC9ExeSz_yOe2cDUs-4">
          <mxGeometry width="50" height="50" relative="1" as="geometry">
            <mxPoint x="27.777777777777786" y="140" as="sourcePoint" />
            <mxPoint x="55.55555555555557" y="165" as="targetPoint" />
          </mxGeometry>
        </mxCell>
        <mxCell id="4HzKC9ExeSz_yOe2cDUs-16" value="" style="endArrow=none;html=1;rounded=0;entryX=0;entryY=0.5;entryDx=0;entryDy=0;" edge="1" parent="4HzKC9ExeSz_yOe2cDUs-63" target="4HzKC9ExeSz_yOe2cDUs-5">
          <mxGeometry width="50" height="50" relative="1" as="geometry">
            <mxPoint x="144.44444444444446" y="20" as="sourcePoint" />
            <mxPoint x="183.33333333333337" y="45" as="targetPoint" />
          </mxGeometry>
        </mxCell>
        <mxCell id="4HzKC9ExeSz_yOe2cDUs-18" value="" style="endArrow=none;html=1;rounded=0;entryX=0;entryY=0.5;entryDx=0;entryDy=0;" edge="1" parent="4HzKC9ExeSz_yOe2cDUs-63" target="4HzKC9ExeSz_yOe2cDUs-7">
          <mxGeometry width="50" height="50" relative="1" as="geometry">
            <mxPoint x="144.44444444444446" y="20" as="sourcePoint" />
            <mxPoint x="94.44444444444446" y="45" as="targetPoint" />
          </mxGeometry>
        </mxCell>
        <mxCell id="4HzKC9ExeSz_yOe2cDUs-19" value="" style="endArrow=none;html=1;rounded=0;entryX=0;entryY=0.5;entryDx=0;entryDy=0;exitX=1;exitY=0.5;exitDx=0;exitDy=0;" edge="1" parent="4HzKC9ExeSz_yOe2cDUs-63" source="4HzKC9ExeSz_yOe2cDUs-1" target="4HzKC9ExeSz_yOe2cDUs-8">
          <mxGeometry width="50" height="50" relative="1" as="geometry">
            <mxPoint x="134.44444444444446" y="25.999999999999996" as="sourcePoint" />
            <mxPoint x="50" y="45" as="targetPoint" />
          </mxGeometry>
        </mxCell>
        <mxCell id="4HzKC9ExeSz_yOe2cDUs-20" value="" style="endArrow=none;html=1;rounded=0;exitX=1;exitY=0.5;exitDx=0;exitDy=0;entryX=0;entryY=0.5;entryDx=0;entryDy=0;" edge="1" parent="4HzKC9ExeSz_yOe2cDUs-63">
          <mxGeometry width="50" height="50" relative="1" as="geometry">
            <mxPoint x="100" y="20" as="sourcePoint" />
            <mxPoint x="144.44444444444446" y="40" as="targetPoint" />
          </mxGeometry>
        </mxCell>
        <mxCell id="4HzKC9ExeSz_yOe2cDUs-22" value="" style="endArrow=none;html=1;rounded=0;entryX=0;entryY=0.5;entryDx=0;entryDy=0;" edge="1" parent="4HzKC9ExeSz_yOe2cDUs-63">
          <mxGeometry width="50" height="50" relative="1" as="geometry">
            <mxPoint x="100" y="20" as="sourcePoint" />
            <mxPoint x="55.55555555555557" y="40" as="targetPoint" />
          </mxGeometry>
        </mxCell>
        <mxCell id="4HzKC9ExeSz_yOe2cDUs-23" value="" style="endArrow=none;html=1;rounded=0;entryX=0;entryY=0.5;entryDx=0;entryDy=0;" edge="1" parent="4HzKC9ExeSz_yOe2cDUs-63">
          <mxGeometry width="50" height="50" relative="1" as="geometry">
            <mxPoint x="100" y="20" as="sourcePoint" />
            <mxPoint x="11.111111111111112" y="40" as="targetPoint" />
          </mxGeometry>
        </mxCell>
        <mxCell id="4HzKC9ExeSz_yOe2cDUs-24" value="" style="endArrow=none;html=1;rounded=0;entryX=0;entryY=0.5;entryDx=0;entryDy=0;exitX=1;exitY=0.5;exitDx=0;exitDy=0;" edge="1" parent="4HzKC9ExeSz_yOe2cDUs-63" target="4HzKC9ExeSz_yOe2cDUs-4">
          <mxGeometry width="50" height="50" relative="1" as="geometry">
            <mxPoint x="100" y="20" as="sourcePoint" />
            <mxPoint x="-33.333333333333336" y="40" as="targetPoint" />
          </mxGeometry>
        </mxCell>
        <mxCell id="4HzKC9ExeSz_yOe2cDUs-26" value="" style="endArrow=none;html=1;rounded=0;entryX=0;entryY=0.5;entryDx=0;entryDy=0;" edge="1" parent="4HzKC9ExeSz_yOe2cDUs-63">
          <mxGeometry width="50" height="50" relative="1" as="geometry">
            <mxPoint x="55.55555555555557" y="20" as="sourcePoint" />
            <mxPoint x="55.55555555555557" y="40" as="targetPoint" />
          </mxGeometry>
        </mxCell>
        <mxCell id="4HzKC9ExeSz_yOe2cDUs-27" value="" style="endArrow=none;html=1;rounded=0;entryX=0;entryY=0.5;entryDx=0;entryDy=0;" edge="1" parent="4HzKC9ExeSz_yOe2cDUs-63">
          <mxGeometry width="50" height="50" relative="1" as="geometry">
            <mxPoint x="55.55555555555557" y="20" as="sourcePoint" />
            <mxPoint x="11.111111111111112" y="40" as="targetPoint" />
          </mxGeometry>
        </mxCell>
        <mxCell id="4HzKC9ExeSz_yOe2cDUs-28" value="" style="endArrow=none;html=1;rounded=0;entryX=0;entryY=0.5;entryDx=0;entryDy=0;" edge="1" parent="4HzKC9ExeSz_yOe2cDUs-63" target="4HzKC9ExeSz_yOe2cDUs-4">
          <mxGeometry width="50" height="50" relative="1" as="geometry">
            <mxPoint x="55.55555555555557" y="20" as="sourcePoint" />
            <mxPoint x="-33.333333333333336" y="40" as="targetPoint" />
          </mxGeometry>
        </mxCell>
        <mxCell id="4HzKC9ExeSz_yOe2cDUs-29" value="" style="endArrow=none;html=1;rounded=0;entryX=0;entryY=0.5;entryDx=0;entryDy=0;exitX=1;exitY=0.5;exitDx=0;exitDy=0;" edge="1" parent="4HzKC9ExeSz_yOe2cDUs-63">
          <mxGeometry width="50" height="50" relative="1" as="geometry">
            <mxPoint x="55.55555555555557" y="20" as="sourcePoint" />
            <mxPoint x="144.44444444444446" y="40" as="targetPoint" />
          </mxGeometry>
        </mxCell>
        <mxCell id="4HzKC9ExeSz_yOe2cDUs-30" value="" style="endArrow=none;html=1;rounded=0;exitX=1;exitY=0.5;exitDx=0;exitDy=0;entryX=0;entryY=0.5;entryDx=0;entryDy=0;" edge="1" parent="4HzKC9ExeSz_yOe2cDUs-63">
          <mxGeometry width="50" height="50" relative="1" as="geometry">
            <mxPoint x="144.44444444444446" y="60" as="sourcePoint" />
            <mxPoint x="188.8888888888889" y="80" as="targetPoint" />
          </mxGeometry>
        </mxCell>
        <mxCell id="4HzKC9ExeSz_yOe2cDUs-31" value="" style="endArrow=none;html=1;rounded=0;entryX=0;entryY=0.5;entryDx=0;entryDy=0;" edge="1" parent="4HzKC9ExeSz_yOe2cDUs-63">
          <mxGeometry width="50" height="50" relative="1" as="geometry">
            <mxPoint x="144.44444444444446" y="60" as="sourcePoint" />
            <mxPoint x="144.44444444444446" y="80" as="targetPoint" />
          </mxGeometry>
        </mxCell>
        <mxCell id="4HzKC9ExeSz_yOe2cDUs-33" value="" style="endArrow=none;html=1;rounded=0;entryX=0;entryY=0.5;entryDx=0;entryDy=0;" edge="1" parent="4HzKC9ExeSz_yOe2cDUs-63">
          <mxGeometry width="50" height="50" relative="1" as="geometry">
            <mxPoint x="144.44444444444446" y="60" as="sourcePoint" />
            <mxPoint x="55.55555555555557" y="80" as="targetPoint" />
          </mxGeometry>
        </mxCell>
        <mxCell id="4HzKC9ExeSz_yOe2cDUs-34" value="" style="endArrow=none;html=1;rounded=0;entryX=0;entryY=0.5;entryDx=0;entryDy=0;exitX=1;exitY=0.5;exitDx=0;exitDy=0;" edge="1" parent="4HzKC9ExeSz_yOe2cDUs-63">
          <mxGeometry width="50" height="50" relative="1" as="geometry">
            <mxPoint x="144.44444444444446" y="60" as="sourcePoint" />
            <mxPoint x="11.111111111111112" y="80" as="targetPoint" />
          </mxGeometry>
        </mxCell>
        <mxCell id="4HzKC9ExeSz_yOe2cDUs-41" value="" style="endArrow=none;html=1;rounded=0;entryX=0;entryY=0.5;entryDx=0;entryDy=0;" edge="1" parent="4HzKC9ExeSz_yOe2cDUs-63">
          <mxGeometry width="50" height="50" relative="1" as="geometry">
            <mxPoint x="55.55555555555557" y="60" as="sourcePoint" />
            <mxPoint x="55.55555555555557" y="80" as="targetPoint" />
          </mxGeometry>
        </mxCell>
        <mxCell id="4HzKC9ExeSz_yOe2cDUs-42" value="" style="endArrow=none;html=1;rounded=0;entryX=0;entryY=0.5;entryDx=0;entryDy=0;" edge="1" parent="4HzKC9ExeSz_yOe2cDUs-63">
          <mxGeometry width="50" height="50" relative="1" as="geometry">
            <mxPoint x="55.55555555555557" y="60" as="sourcePoint" />
            <mxPoint x="11.111111111111112" y="80" as="targetPoint" />
          </mxGeometry>
        </mxCell>
        <mxCell id="4HzKC9ExeSz_yOe2cDUs-43" value="" style="endArrow=none;html=1;rounded=0;entryX=0;entryY=0.5;entryDx=0;entryDy=0;" edge="1" parent="4HzKC9ExeSz_yOe2cDUs-63">
          <mxGeometry width="50" height="50" relative="1" as="geometry">
            <mxPoint x="55.55555555555557" y="60" as="sourcePoint" />
            <mxPoint x="188.8888888888889" y="80" as="targetPoint" />
          </mxGeometry>
        </mxCell>
        <mxCell id="4HzKC9ExeSz_yOe2cDUs-44" value="" style="endArrow=none;html=1;rounded=0;entryX=0;entryY=0.5;entryDx=0;entryDy=0;exitX=1;exitY=0.5;exitDx=0;exitDy=0;" edge="1" parent="4HzKC9ExeSz_yOe2cDUs-63">
          <mxGeometry width="50" height="50" relative="1" as="geometry">
            <mxPoint x="55.55555555555557" y="60" as="sourcePoint" />
            <mxPoint x="144.44444444444446" y="80" as="targetPoint" />
          </mxGeometry>
        </mxCell>
        <mxCell id="4HzKC9ExeSz_yOe2cDUs-45" value="" style="endArrow=none;html=1;rounded=0;entryX=0;entryY=0.5;entryDx=0;entryDy=0;" edge="1" parent="4HzKC9ExeSz_yOe2cDUs-63" target="4HzKC9ExeSz_yOe2cDUs-9">
          <mxGeometry width="50" height="50" relative="1" as="geometry">
            <mxPoint x="188.8888888888889" y="60" as="sourcePoint" />
            <mxPoint x="216.66666666666666" y="85" as="targetPoint" />
          </mxGeometry>
        </mxCell>
        <mxCell id="4HzKC9ExeSz_yOe2cDUs-46" value="" style="endArrow=none;html=1;rounded=0;" edge="1" parent="4HzKC9ExeSz_yOe2cDUs-63">
          <mxGeometry width="50" height="50" relative="1" as="geometry">
            <mxPoint x="11.111111111111112" y="60" as="sourcePoint" />
            <mxPoint x="188.8888888888889" y="80" as="targetPoint" />
          </mxGeometry>
        </mxCell>
        <mxCell id="4HzKC9ExeSz_yOe2cDUs-47" value="" style="endArrow=none;html=1;rounded=0;entryX=0;entryY=0.5;entryDx=0;entryDy=0;" edge="1" parent="4HzKC9ExeSz_yOe2cDUs-63">
          <mxGeometry width="50" height="50" relative="1" as="geometry">
            <mxPoint x="11.111111111111112" y="60" as="sourcePoint" />
            <mxPoint x="11.111111111111112" y="80" as="targetPoint" />
          </mxGeometry>
        </mxCell>
        <mxCell id="4HzKC9ExeSz_yOe2cDUs-48" value="" style="endArrow=none;html=1;rounded=0;entryX=0;entryY=0.5;entryDx=0;entryDy=0;exitX=1;exitY=0.5;exitDx=0;exitDy=0;" edge="1" parent="4HzKC9ExeSz_yOe2cDUs-63" target="4HzKC9ExeSz_yOe2cDUs-13">
          <mxGeometry width="50" height="50" relative="1" as="geometry">
            <mxPoint x="188.8888888888889" y="60" as="sourcePoint" />
            <mxPoint x="55.55555555555557" y="80" as="targetPoint" />
          </mxGeometry>
        </mxCell>
        <mxCell id="4HzKC9ExeSz_yOe2cDUs-49" value="" style="endArrow=none;html=1;rounded=0;entryX=0;entryY=0.5;entryDx=0;entryDy=0;" edge="1" parent="4HzKC9ExeSz_yOe2cDUs-63" target="4HzKC9ExeSz_yOe2cDUs-10">
          <mxGeometry width="50" height="50" relative="1" as="geometry">
            <mxPoint x="188.8888888888889" y="60" as="sourcePoint" />
            <mxPoint x="116.66666666666669" y="15" as="targetPoint" />
          </mxGeometry>
        </mxCell>
        <mxCell id="4HzKC9ExeSz_yOe2cDUs-51" value="" style="endArrow=none;html=1;rounded=0;entryX=0;entryY=0.5;entryDx=0;entryDy=0;" edge="1" parent="4HzKC9ExeSz_yOe2cDUs-63" target="4HzKC9ExeSz_yOe2cDUs-12">
          <mxGeometry width="50" height="50" relative="1" as="geometry">
            <mxPoint x="188.8888888888889" y="60" as="sourcePoint" />
            <mxPoint x="133.33333333333334" y="90" as="targetPoint" />
          </mxGeometry>
        </mxCell>
        <mxCell id="4HzKC9ExeSz_yOe2cDUs-52" value="" style="endArrow=none;html=1;rounded=0;entryX=0;entryY=0.5;entryDx=0;entryDy=0;" edge="1" parent="4HzKC9ExeSz_yOe2cDUs-63" target="4HzKC9ExeSz_yOe2cDUs-10">
          <mxGeometry width="50" height="50" relative="1" as="geometry">
            <mxPoint x="11.111111111111112" y="60" as="sourcePoint" />
            <mxPoint x="183.33333333333337" y="85" as="targetPoint" />
          </mxGeometry>
        </mxCell>
        <mxCell id="4HzKC9ExeSz_yOe2cDUs-54" value="" style="endArrow=none;html=1;rounded=0;exitX=1;exitY=0.5;exitDx=0;exitDy=0;" edge="1" parent="4HzKC9ExeSz_yOe2cDUs-63" source="4HzKC9ExeSz_yOe2cDUs-8">
          <mxGeometry width="50" height="50" relative="1" as="geometry">
            <mxPoint x="-5.555555555555556" y="74.99999999999999" as="sourcePoint" />
            <mxPoint x="55.55555555555557" y="80" as="targetPoint" />
          </mxGeometry>
        </mxCell>
        <mxCell id="4HzKC9ExeSz_yOe2cDUs-55" value="" style="endArrow=none;html=1;rounded=0;entryX=1;entryY=0.5;entryDx=0;entryDy=0;exitX=0;exitY=0.5;exitDx=0;exitDy=0;" edge="1" parent="4HzKC9ExeSz_yOe2cDUs-63" source="4HzKC9ExeSz_yOe2cDUs-14" target="4HzKC9ExeSz_yOe2cDUs-9">
          <mxGeometry width="50" height="50" relative="1" as="geometry">
            <mxPoint x="-11.111111111111112" y="80" as="sourcePoint" />
            <mxPoint x="166.66666666666669" y="99.99999999999999" as="targetPoint" />
          </mxGeometry>
        </mxCell>
        <mxCell id="4HzKC9ExeSz_yOe2cDUs-56" value="" style="endArrow=none;html=1;rounded=0;entryX=1;entryY=0.5;entryDx=0;entryDy=0;exitX=0;exitY=0.5;exitDx=0;exitDy=0;" edge="1" parent="4HzKC9ExeSz_yOe2cDUs-63" source="4HzKC9ExeSz_yOe2cDUs-14" target="4HzKC9ExeSz_yOe2cDUs-10">
          <mxGeometry width="50" height="50" relative="1" as="geometry">
            <mxPoint x="-16.666666666666668" y="85" as="sourcePoint" />
            <mxPoint x="161.11111111111114" y="105" as="targetPoint" />
          </mxGeometry>
        </mxCell>
        <mxCell id="4HzKC9ExeSz_yOe2cDUs-58" value="" style="endArrow=none;html=1;rounded=0;entryX=0;entryY=0.5;entryDx=0;entryDy=0;exitX=1;exitY=0.5;exitDx=0;exitDy=0;" edge="1" parent="4HzKC9ExeSz_yOe2cDUs-63" source="4HzKC9ExeSz_yOe2cDUs-12" target="4HzKC9ExeSz_yOe2cDUs-14">
          <mxGeometry width="50" height="50" relative="1" as="geometry">
            <mxPoint x="-27.777777777777786" y="95" as="sourcePoint" />
            <mxPoint x="150" y="115" as="targetPoint" />
          </mxGeometry>
        </mxCell>
        <mxCell id="4HzKC9ExeSz_yOe2cDUs-59" value="" style="endArrow=none;html=1;rounded=0;entryX=0;entryY=0.5;entryDx=0;entryDy=0;exitX=1;exitY=0.5;exitDx=0;exitDy=0;" edge="1" parent="4HzKC9ExeSz_yOe2cDUs-63" source="4HzKC9ExeSz_yOe2cDUs-13" target="4HzKC9ExeSz_yOe2cDUs-14">
          <mxGeometry width="50" height="50" relative="1" as="geometry">
            <mxPoint x="-33.333333333333336" y="99.99999999999999" as="sourcePoint" />
            <mxPoint x="144.44444444444446" y="120" as="targetPoint" />
          </mxGeometry>
        </mxCell>
        <mxCell id="4HzKC9ExeSz_yOe2cDUs-61" value="&lt;font style=&quot;font-size: 24px;&quot;&gt;...&lt;/font&gt;" style="text;html=1;align=center;verticalAlign=middle;whiteSpace=wrap;rounded=0;" vertex="1" parent="4HzKC9ExeSz_yOe2cDUs-63">
          <mxGeometry x="83.33333333333334" y="40" width="33.333333333333336" height="15" as="geometry" />
        </mxCell>
        <mxCell id="4HzKC9ExeSz_yOe2cDUs-62" value="&lt;font style=&quot;font-size: 24px;&quot;&gt;...&lt;/font&gt;" style="text;html=1;align=center;verticalAlign=middle;whiteSpace=wrap;rounded=0;" vertex="1" parent="4HzKC9ExeSz_yOe2cDUs-63">
          <mxGeometry x="83.33333333333334" y="80" width="33.333333333333336" height="15" as="geometry" />
        </mxCell>
      </root>
    </mxGraphModel>
  </diagram>
</mxfile>
